# xmcd
#
# Track frame offsets:
#	150
#	18435
#	35025
#	50580
#	66005
#	81872
#	102830
#	119800
#	138592
#	157337
#	178727
#	197210
#	210007
#	225447
#	241850
#	263127
#	279575
#	297022
#
# Disc length: 4200 seconds
#
# Revision: 1
# Processed by: cddbd v1.5.1PL0 Copyright (c) Steve Scherf et al.
# Submitted via: CDex 1.50Beta5
#
DISCID=08106612
DTITLE=千昌夫 - 千昌夫 全曲集
DYEAR=1900
DGENRE=Enka
TTITLE0=望郷旅鴉
TTITLE1=夕焼け雲
TTITLE2=流れ雲
TTITLE3=心の旅路
TTITLE4=ふるさとの祭り
TTITLE5=ギターよふるさとへ帰ろう
TTITLE6=味噌汁の詩
TTITLE7=望郷酒場
TTITLE8=津軽平野
TTITLE9=あんた
TTITLE10=アケミという名で十八で
TTITLE11=男の哀歌
TTITLE12=涙のワルツ
TTITLE13=或る女の挽歌
TTITLE14=さよなら三角また来て四角
TTITLE15=おやじの酒
TTITLE16=星影のワルツ
TTITLE17=北国の春
EXTD=
EXTT0=
EXTT1=
EXTT2=
EXTT3=
EXTT4=
EXTT5=
EXTT6=
EXTT7=
EXTT8=
EXTT9=
EXTT10=
EXTT11=
EXTT12=
EXTT13=
EXTT14=
EXTT15=
EXTT16=
EXTT17=
PLAYORDER=
